<svg width="166" height="142" viewBox="0 0 166 142" fill="none" xmlns="http://www.w3.org/2000/svg">
<path d="M112.179 80.7271H84.4021C83.5991 80.7271 82.8291 80.4081 82.2613 79.8403C81.6935 79.2726 81.3746 78.5025 81.3746 77.6995C81.3746 76.8966 81.6935 76.1265 82.2613 75.5588C82.8291 74.991 83.5991 74.6721 84.4021 74.6721H112.182C113.232 74.6502 114.23 74.2132 114.958 73.4566C115.686 72.7 116.084 71.6857 116.065 70.6361V52.8881C116.065 52.0851 116.384 51.315 116.952 50.7473C117.52 50.1795 118.29 49.8605 119.093 49.8605C119.896 49.8605 120.666 50.1795 121.233 50.7473C121.801 51.315 122.12 52.0851 122.12 52.8881V70.6361C122.137 73.2916 121.1 75.8455 119.236 77.7373C117.373 79.6291 114.835 80.7043 112.179 80.7271ZM46.0271 59.5951C45.2243 59.5951 44.4543 59.2761 43.8867 58.7085C43.319 58.1408 43.0001 57.3709 43.0001 56.568V10.0911C42.9915 7.67263 43.853 5.33179 45.4273 3.49589C47.0016 1.66 49.1836 0.451512 51.5751 0.0910532C51.8015 0.0579128 52.0312 0.0518649 52.2591 0.0730478C52.4816 0.023229 52.709 -0.00125802 52.9371 4.9733e-05H109.446C110.249 4.9733e-05 111.019 0.319017 111.587 0.886784C112.155 1.45455 112.474 2.2246 112.474 3.02755C112.474 3.83049 112.155 4.60055 111.587 5.16832C111.019 5.73608 110.249 6.05505 109.446 6.05505H52.9371C52.8484 6.05505 52.7597 6.05105 52.6711 6.04305C52.5861 6.06305 52.4991 6.07905 52.4131 6.09105C51.4669 6.24482 50.6075 6.73323 49.9912 7.46738C49.3748 8.20153 49.0426 9.13258 49.0551 10.0911V56.5671C49.0551 57.3701 48.736 58.1403 48.1682 58.7082C47.6003 59.276 46.8301 59.5951 46.0271 59.5951Z" fill="white"/>
<path d="M90.3325 22.0931C90.3325 22.0931 81.8625 14.7931 73.4105 22.6041C73.4105 22.6041 70.4495 11.7971 81.8005 11.7721C92.3265 11.7521 90.3325 22.0931 90.3325 22.0931Z" fill="white"/>
<path d="M85.3542 46.985C85.3542 46.985 91.9962 34.723 92.2782 33.833C92.5952 32.864 94.3062 28.763 92.1782 21.522C90.0502 14.281 87.1972 13.114 87.1972 13.114C91.8692 16.214 88.9852 22.198 86.8622 25.927C86.4622 26.627 86.0492 27.316 85.6292 28C83.7432 31.066 66.6172 61.722 66.6172 61.722L71.6442 69.502L85.3542 46.985Z" fill="white"/>
<path d="M81.791 34.6821C80.166 37.5561 78.215 41.0291 76.251 44.5151L77.773 47.3261L81.41 53.3021L85.121 47.2151C85.121 47.2151 85.957 45.6711 87.048 43.6391C85.177 40.4521 83.339 37.3141 81.791 34.6821Z" fill="white"/>
<path d="M78.2031 46.9851C78.2031 46.9851 71.5591 34.7231 71.2791 33.8331C70.9601 32.8641 69.2511 28.7631 71.3791 21.5221C73.5071 14.2811 76.3641 13.1121 76.3641 13.1121C71.6881 16.2121 74.5761 22.2061 76.6951 25.9251C77.0951 26.6251 77.5081 27.3111 77.9301 27.9981C79.8171 31.0641 97.3851 61.1241 97.3851 61.1241L91.9161 69.5011L78.2031 46.9851Z" fill="white"/>
<path d="M10.5119 130.631H14.8469L17.4139 133.959L19.2459 136.127L23.6459 141.778H18.9999L16.0069 137.986L14.7319 136.18L10.5119 130.631ZM24.2779 126.296C24.3483 128.828 23.799 131.34 22.6779 133.612C21.7053 135.541 20.2011 137.153 18.3429 138.256C16.4436 139.313 14.3058 139.868 12.1319 139.868C9.95805 139.868 7.82019 139.313 5.92091 138.256C4.06708 137.141 2.56472 135.527 1.58591 133.598C0.540828 131.306 0 128.816 0 126.298C0 123.779 0.540828 121.289 1.58591 118.998C2.56016 117.065 4.06359 115.45 5.92091 114.34C7.82022 113.282 9.95807 112.727 12.1319 112.727C14.3058 112.727 16.4436 113.282 18.3429 114.34C20.2033 115.445 21.7075 117.061 22.6769 118.996C23.7993 121.261 24.349 123.768 24.2779 126.296ZM19.4649 126.296C19.5166 124.558 19.1961 122.829 18.5249 121.226C17.9924 119.949 17.0926 118.86 15.9399 118.096C14.794 117.396 13.4772 117.025 12.1344 117.025C10.7916 117.025 9.47483 117.396 8.32892 118.096C7.17612 118.864 6.27443 119.953 5.73592 121.23C4.4982 124.501 4.4982 128.111 5.73592 131.383C6.27835 132.656 7.1792 133.745 8.32892 134.517C9.47766 135.209 10.7933 135.574 12.1344 135.574C13.4755 135.574 14.7912 135.209 15.9399 134.517C17.0887 133.747 17.9862 132.657 18.5209 131.383C19.1929 129.773 19.5143 128.039 19.4639 126.296H19.4649ZM30.8109 139.507H25.7029L35.0029 113.087H40.9099L50.2239 139.507H45.1159L38.0599 118.507H37.8519L30.8109 139.507ZM30.9789 129.148H44.9119V132.996H30.9779L30.9789 129.148ZM56.7789 139.507L49.3219 113.087H54.4699L59.2289 132.502H59.4749L64.5569 113.087H69.2399L74.3399 132.516H74.5719L79.3309 113.087H84.4789L77.0219 139.507H72.3019L67.0119 120.97H66.8059L61.5059 139.507H56.7789ZM88.7039 139.507H83.5939L92.8939 113.087H98.8029L108.117 139.507H103.007L95.9509 118.507H95.7449L88.7039 139.507ZM88.8709 129.148H102.802V132.996H88.8749L88.8709 129.148ZM111.598 139.507V113.087H121.505C123.267 113.029 125.018 113.392 126.613 114.145C127.935 114.792 129.029 115.827 129.749 117.112C130.485 118.469 130.853 119.994 130.819 121.538C130.857 123.079 130.483 124.602 129.735 125.95C129 127.209 127.897 128.212 126.575 128.826C124.961 129.543 123.206 129.887 121.441 129.833H114.385V125.859H120.797C121.791 125.893 122.782 125.726 123.711 125.369C124.414 125.08 125.004 124.568 125.388 123.912C125.778 123.183 125.969 122.365 125.943 121.539C125.967 120.704 125.776 119.878 125.388 119.139C125.009 118.458 124.415 117.923 123.699 117.617C122.772 117.231 121.774 117.051 120.771 117.088H116.384V139.508L111.598 139.507ZM125.247 127.535L131.788 139.507H126.45L120.026 127.535H125.247ZM140.01 113.087V139.507H135.225V113.087H140.01ZM145.193 139.507V113.087H155.102C156.864 113.03 158.615 113.392 160.21 114.145C161.532 114.792 162.625 115.827 163.344 117.112C164.081 118.468 164.451 119.994 164.416 121.538C164.454 123.079 164.08 124.602 163.332 125.95C162.597 127.208 161.494 128.212 160.172 128.826C158.558 129.542 156.804 129.885 155.04 129.832H147.982V125.858H154.394C155.389 125.892 156.381 125.725 157.31 125.368C158.013 125.079 158.603 124.567 158.987 123.911C159.376 123.182 159.567 122.363 159.54 121.538C159.565 120.703 159.375 119.877 158.987 119.138C158.606 118.458 158.012 117.923 157.296 117.616C156.37 117.23 155.371 117.05 154.368 117.087H149.982V139.507H145.193ZM158.842 127.535L165.383 139.507H160.043L153.617 127.535H158.842Z" fill="white"/>
</svg>
